# xmcd
#
# Track frame offsets: 
#        150
#        17957
#        35540
#        54285
#        71665
#        90465
#        104430
#        119400
#        130895
#        145480
#        161552
#        178100
#        192430
#        210847
#
# Disc length: 3001 seconds
#
# Revision: 11
# Processed by: cddbd v1.5.2PL0 Copyright (c) Steve Scherf et al.
# Submitted via: ExactAudioCopyFreeDBPlugin 1.0
#
DISCID=c70bb70e
DTITLE=Lynda Lemay - Du coq à l'âme
DYEAR=2000
DGENRE=Blues
TTITLE0=Un truc de passage
TTITLE1=Roule-moi
TTITLE2=J'ai battu ma fille
TTITLE3=La lune et le miel
TTITLE4=Je suis grande
TTITLE5=Crétin
TTITLE6=Mon nom
TTITLE7=Bande de dégonflés
TTITLE8=Ailleurs
TTITLE9=Les mains vides
TTITLE10=C'est comme ça
TTITLE11=Gronde
TTITLE12=La place au sous-sol
TTITLE13=Les maudits Français
EXTD=
EXTT0=
EXTT1=
EXTT2=
EXTT3=
EXTT4=
EXTT5=
EXTT6=
EXTT7=
EXTT8=
EXTT9=
EXTT10=
EXTT11=
EXTT12=
EXTT13=
PLAYORDER=
